<svg width="8" height="13" viewBox="0 0 8 13" fill="none" xmlns="http://www.w3.org/2000/svg">
<path d="M5.27869 8.84156L7.04766 10.5493C7.41005 10.8984 7.41005 11.4653 7.04766 11.8148C6.68565 12.1642 6.0989 12.1642 5.73726 11.8148L3.99802 10.1366L2.2603 11.8148C2.0791 11.9893 1.84168 12.0767 1.60425 12.0767C1.3672 12.0767 1.13015 11.9893 0.948958 11.8148C0.586948 11.4653 0.586948 10.8987 0.948579 10.5493L2.71773 8.84156C2.07361 8.69991 1.4524 8.45355 0.880229 8.10703C0.447218 7.84348 0.317144 7.29135 0.589977 6.87301C0.862053 6.45411 1.43423 6.32801 1.86799 6.59155C3.16343 7.37817 4.83224 7.37835 6.12843 6.59155C6.5622 6.32801 7.13418 6.45411 7.40683 6.87301C7.67966 7.29099 7.54921 7.84348 7.1162 8.10703C6.54402 8.45391 5.92281 8.69991 5.27869 8.84156Z" fill="white" fill-opacity="0.8"/>
<path fill-rule="evenodd" clip-rule="evenodd" d="M0.826172 3.2947C0.826172 4.97869 2.24543 6.3485 3.99054 6.3485C5.73603 6.3485 7.15491 4.97869 7.15491 3.2947C7.15491 1.61017 5.73603 0.23999 3.99054 0.23999C2.24543 0.23999 0.826172 1.61017 0.826172 3.2947ZM5.3007 3.29438C5.3007 2.59695 4.713 2.02984 3.99049 2.02984C3.26855 2.02984 2.68029 2.59695 2.68029 3.29438C2.68029 3.99126 3.26855 4.55874 3.99049 4.55874C4.713 4.55874 5.3007 3.99126 5.3007 3.29438Z" fill="white" fill-opacity="0.8"/>
</svg>
