<svg width="13" height="7" viewBox="0 0 13 7" fill="none" xmlns="http://www.w3.org/2000/svg">
<path fill-rule="evenodd" clip-rule="evenodd" d="M12.659 0.586452C12.7515 0.323404 12.659 0.132084 12.2492 0.132084H10.8878C10.5442 0.132084 10.3856 0.299471 10.2931 0.47886C10.2931 0.47886 9.59255 2.00939 8.61448 3.00182C8.29726 3.2888 8.15187 3.38446 7.98008 3.38446C7.88752 3.38446 7.7686 3.2888 7.7686 3.02575V0.574485C7.7686 0.263607 7.66286 0.120117 7.37205 0.120117H5.23087C5.01939 0.120117 4.88724 0.263607 4.88724 0.407098C4.88724 0.706044 5.37626 0.777772 5.42913 1.61478V3.43229C5.42913 3.82689 5.34984 3.89862 5.178 3.89862C4.7154 3.89862 3.59194 2.35613 2.91786 0.598418C2.78567 0.251641 2.65351 0.120117 2.30988 0.120117H0.935255C0.538746 0.120117 0.472656 0.28754 0.472656 0.466894C0.472656 0.789738 0.935255 2.41593 2.62706 4.56824C3.75055 6.03897 5.34984 6.82815 6.79052 6.82815C7.66286 6.82815 7.7686 6.6488 7.7686 6.34989V5.23786C7.7686 4.87912 7.84788 4.81936 8.12546 4.81936C8.32371 4.81936 8.68057 4.91498 9.48681 5.62047C10.412 6.45748 10.5706 6.84012 11.0861 6.84012H12.4475C12.844 6.84012 13.0291 6.66076 12.9233 6.31399C12.8044 5.96725 12.355 5.46505 11.7734 4.86715C11.4562 4.53238 10.9804 4.16171 10.835 3.98232C10.6367 3.7432 10.6896 3.64754 10.835 3.43229C10.8218 3.43229 12.4871 1.3039 12.659 0.586452Z" fill="white" fill-opacity="0.8"/>
</svg>
