<svg width="12" height="8" viewBox="0 0 12 8" fill="none" xmlns="http://www.w3.org/2000/svg">
<path fill-rule="evenodd" clip-rule="evenodd" d="M10.0015 0.699712C10.4421 0.820618 10.7891 1.17687 10.9069 1.62927C11.1209 2.4492 11.1209 4.15998 11.1209 4.15998C11.1209 4.15998 11.1209 5.8707 10.9069 6.69069C10.7891 7.14309 10.4421 7.49934 10.0015 7.62031C9.20301 7.83998 6.00086 7.83998 6.00086 7.83998C6.00086 7.83998 2.79871 7.83998 2.00016 7.62031C1.55955 7.49934 1.21255 7.14309 1.09479 6.69069C0.880859 5.8707 0.880859 4.15998 0.880859 4.15998C0.880859 4.15998 0.880859 2.4492 1.09479 1.62927C1.21255 1.17687 1.55955 0.820618 2.00016 0.699712C2.79871 0.47998 6.00086 0.47998 6.00086 0.47998C6.00086 0.47998 9.20301 0.47998 10.0015 0.699712ZM5.04084 2.72014V5.92014L7.60084 4.3202L5.04084 2.72014Z" fill="white" fill-opacity="0.8"/>
</svg>
