<svg width="12" height="10" viewBox="0 0 12 10" fill="none" xmlns="http://www.w3.org/2000/svg">
<path d="M0.734041 4.90593C1.85627 4.28777 3.10899 3.77185 4.27947 3.25329C6.29315 2.40393 8.31484 1.56929 10.3569 0.792246C10.7542 0.659846 11.4681 0.530366 11.5381 1.11917C11.4998 1.95261 11.3421 2.78117 11.234 3.60973C10.9594 5.43181 10.6422 7.24764 10.3328 9.06372C10.2262 9.66864 9.46835 9.9818 8.98347 9.59468C7.81819 8.80756 6.64395 8.02812 5.49355 7.22276C5.11671 6.83985 5.46615 6.28997 5.80271 6.01653C6.76247 5.07069 7.78031 4.26709 8.68991 3.27237C8.93527 2.67985 8.21031 3.17921 7.97119 3.33221C6.65727 4.23765 5.37551 5.19837 3.99023 5.99412C3.28263 6.38365 2.45791 6.05077 1.75063 5.83341C1.11646 5.57085 0.187177 5.30632 0.733977 4.90597L0.734041 4.90593Z" fill="white" fill-opacity="0.8"/>
</svg>
